<svg width="52.14" height="65.652" fill="none" version="1.1" id="svg905" xmlns="http://www.w3.org/2000/svg"><path d="M29.073 65.652c12.74 0 23.066-10.31 23.066-23.027S41.812 19.598 29.073 19.598c-12.74 0-23.067 10.31-23.067 23.027 0 12.718 10.328 23.027 23.067 23.027z" fill="url('#paint0_linear_0_21')" id="path824" style="fill:url(#paint0_linear_0_21)"/><path d="M29.073 19.598h-6.006C10.327 19.598 0 29.908 0 42.625s10.327 23.027 23.067 23.027h6.006c12.74 0 23.067-10.31 23.067-23.027 0-12.718-10.327-23.027-23.067-23.027z" fill="url('#paint1_linear_0_21')" id="path826" style="fill:url(#paint1_linear_0_21)"/><path d="M29.074 62.414c10.948 0 19.822-8.86 19.822-19.789 0-10.929-8.874-19.789-19.822-19.789-10.948 0-19.823 8.86-19.823 19.79 0 10.928 8.875 19.788 19.823 19.788z" fill="#fff" id="path828"/><path fill-rule="evenodd" clip-rule="evenodd" d="M27.917 38.637 27.325 27.5a1.93 1.93 0 0 0-2.465-1.75c-1.74.5-3.279 1.137-4.618 1.909-1.338.771-2.66 1.784-3.965 3.037a1.926 1.926 0 0 0 .286 3.007l9.366 6.08a1.29 1.29 0 0 0 1.988-1.146z" fill="url('#paint2_linear_0_21')" id="path830" style="fill:url(#paint2_linear_0_21)"/><path fill-rule="evenodd" clip-rule="evenodd" d="m27.91 46.804-.593 11.137a1.93 1.93 0 0 1-2.465 1.75c-1.74-.5-3.279-1.137-4.617-1.909-1.34-.771-2.66-1.784-3.966-3.037a1.926 1.926 0 0 1 .286-3.006l9.366-6.081a1.29 1.29 0 0 1 1.988 1.146z" fill="url('#paint3_linear_0_21')" id="path832" style="fill:url(#paint3_linear_0_21)"/><path fill-rule="evenodd" clip-rule="evenodd" d="m30.174 46.786.592 11.137a1.93 1.93 0 0 0 2.465 1.751c1.74-.501 3.279-1.138 4.617-1.91 1.339-.771 2.66-1.783 3.966-3.037a1.926 1.926 0 0 0-.287-3.006l-9.365-6.08a1.29 1.29 0 0 0-1.988 1.145z" fill="url('#paint4_linear_0_21')" id="path834" style="fill:url(#paint4_linear_0_21)"/><path fill-rule="evenodd" clip-rule="evenodd" d="M30.228 38.637 30.82 27.5a1.93 1.93 0 0 1 2.465-1.75c1.74.5 3.279 1.137 4.617 1.909 1.34.771 2.66 1.784 3.966 3.037a1.926 1.926 0 0 1-.287 3.007l-9.365 6.08a1.29 1.29 0 0 1-1.988-1.146z" fill="url('#paint5_linear_0_21')" id="path836" style="fill:url(#paint5_linear_0_21)"/><path fill-rule="evenodd" clip-rule="evenodd" d="m33.072 41.54 9.958-5.057a1.933 1.933 0 0 1 2.751 1.256c.435 1.755.652 3.404.652 4.947 0 1.543-.217 3.192-.652 4.946a1.932 1.932 0 0 1-2.751 1.256l-9.958-5.056a1.285 1.285 0 0 1 0-2.292z" fill="url('#paint6_linear_0_21')" id="path838" style="fill:url(#paint6_linear_0_21)"/><path fill-rule="evenodd" clip-rule="evenodd" d="m25.074 41.54-9.958-5.057a1.933 1.933 0 0 0-2.75 1.256c-.436 1.755-.653 3.404-.653 4.947 0 1.543.217 3.192.652 4.946a1.932 1.932 0 0 0 2.752 1.256l9.957-5.056a1.285 1.285 0 0 0 0-2.292z" fill="url('#paint7_linear_0_21')" id="path840" style="fill:url(#paint7_linear_0_21)"/><path d="M29.072 44.425a1.8 1.8 0 0 0 1.802-1.8 1.8 1.8 0 0 0-1.802-1.798 1.8 1.8 0 0 0-1.802 1.799 1.8 1.8 0 0 0 1.802 1.799z" fill="url('#paint8_linear_0_21')" id="path842" style="fill:url(#paint8_linear_0_21)"/><path fill-rule="evenodd" clip-rule="evenodd" d="M27.785 0c-4.16 1.372-6.843 3.63-8.048 6.774-1.308 3.075-1.072 6.57.707 10.482 3.968-1.436 6.614-3.71 7.938-6.82 1.323-3.112 1.124-6.59-.597-10.436Z" fill="url('#paint9_linear_0_21')" id="path844" style="fill:url(#paint9_linear_0_21)"/><path fill-rule="evenodd" clip-rule="evenodd" d="M7.58 12.866c2.378-1.227 4.758-1.42 7.14-.58 2.382.841 3.896 2.684 4.542 5.528-2.825 1.113-5.272 1.23-7.34.354-2.07-.876-3.517-2.643-4.342-5.302z" fill="url('#paint10_linear_0_21')" id="path846" style="fill:url(#paint10_linear_0_21)"/><defs id="defs903"><linearGradient id="paint0_linear_0_21" x1="23.997" y1="23.751" x2="36.303" y2="61.892" gradientUnits="userSpaceOnUse" gradientTransform="translate(0 -5.288)"><stop stop-color="#ED4962" id="stop848"/><stop offset="1" stop-color="#F98F81" id="stop850"/></linearGradient><linearGradient id="paint1_linear_0_21" x1="20.334" y1="28.997" x2="31.578" y2="59.833" gradientUnits="userSpaceOnUse" gradientTransform="translate(0 -5.288)"><stop stop-color="#ED4962" id="stop853"/><stop offset="1" stop-color="#F98F81" id="stop855"/></linearGradient><linearGradient id="paint2_linear_0_21" x1="19.01" y1="32.432" x2="26.939" y2="46.188" gradientUnits="userSpaceOnUse" gradientTransform="translate(0 -5.288)"><stop stop-color="#ED4962" id="stop858"/><stop offset="1" stop-color="#F98F81" id="stop860"/></linearGradient><linearGradient id="paint3_linear_0_21" x1="20.369" y1="46.935" x2="26.162" y2="63.4" gradientUnits="userSpaceOnUse" gradientTransform="translate(0 -5.288)"><stop stop-color="#ED4962" id="stop863"/><stop offset="1" stop-color="#F98F81" id="stop865"/></linearGradient><linearGradient id="paint4_linear_0_21" x1="30.567" y1="43.745" x2="37.207" y2="63.271" gradientUnits="userSpaceOnUse" gradientTransform="translate(0 -5.288)"><stop stop-color="#ED4962" id="stop868"/><stop offset="1" stop-color="#F98F81" id="stop870"/></linearGradient><linearGradient id="paint5_linear_0_21" x1="39.135" y1="32.432" x2="31.206" y2="46.188" gradientUnits="userSpaceOnUse" gradientTransform="translate(0 -5.288)"><stop stop-color="#ED4962" id="stop873"/><stop offset="1" stop-color="#F98F81" id="stop875"/></linearGradient><linearGradient id="paint6_linear_0_21" x1="39.401" y1="38.528" x2="41.008" y2="53.564" gradientUnits="userSpaceOnUse" gradientTransform="translate(0 -5.288)"><stop stop-color="#ED4962" id="stop878"/><stop offset="1" stop-color="#F98F81" id="stop880"/></linearGradient><linearGradient id="paint7_linear_0_21" x1="15.184" y1="42.419" x2="22.335" y2="53.351" gradientUnits="userSpaceOnUse" gradientTransform="translate(0 -5.288)"><stop stop-color="#ED4962" id="stop883"/><stop offset="1" stop-color="#F98F81" id="stop885"/></linearGradient><linearGradient id="paint8_linear_0_21" x1="29.072" y1="46.115" x2="29.638" y2="49.006" gradientUnits="userSpaceOnUse" gradientTransform="translate(0 -5.288)"><stop stop-color="#ED4962" id="stop888"/><stop offset="1" stop-color="#F98F81" id="stop890"/></linearGradient><linearGradient id="paint9_linear_0_21" x1="21.302" y1="12.725" x2="27.83" y2="25.104" gradientUnits="userSpaceOnUse" gradientTransform="translate(0 -5.288)"><stop stop-color="#ED4962" id="stop893"/><stop offset="1" stop-color="#F98F81" id="stop895"/></linearGradient><linearGradient id="paint10_linear_0_21" x1="-1.381" y1="14.281" x2="20.267" y2="29.382" gradientUnits="userSpaceOnUse" gradientTransform="translate(0 -5.288)"><stop stop-color="#ED4962" id="stop898"/><stop offset="1" stop-color="#F98F81" id="stop900"/></linearGradient></defs></svg>